<?xml version="1.0" encoding="UTF-8"?>
<svg viewBox="0 0 189.23794 47.621834" xmlns="http://www.w3.org/2000/svg">
<g transform="translate(-246.56 -188.11)">
<path d="m336.45 235.57c-2.2322-0.23829-6.7896-1.1939-8.7749-1.8399-2.8258-0.91951-4.989-2.1865-6.5969-3.864-1.6227-1.6929-2.246-2.7083-3.056-4.9791-0.59947-1.6806-0.61546-1.9803-0.70154-13.154l-0.0881-11.434 2.8618-0.0753c1.574-0.0414 4.7786-0.0401 7.1213 3e-3l4.2595 0.0781 6e-3 9.4469c3e-3 5.1958 0.091 10.064 0.19483 10.819 0.10838 0.78767 0.54558 1.9712 1.0262 2.7781 0.68062 1.1426 1.1345 1.5544 2.4249 2.1996 1.4753 0.73765 1.7932 0.79374 4.4979 0.79367 2.5023-8e-5 3.1068-0.0888 4.311-0.63285 1.6167-0.73042 3.0105-2.2225 3.4517-3.6952 0.19169-0.63977 0.30707-3.1599 0.30707-6.7065 0-3.1249 0.0772-7.814 0.17144-10.42l0.17144-4.7388 3.4666 0.063c1.9066 0.0346 4.9846 0.0644 6.84 0.0661l3.3734 3e-3 -6e-3 11.179c-4e-3 6.7065-0.11554 11.652-0.27912 12.362-0.79836 3.4647-3.5037 6.9408-6.7371 8.6565-1.9006 1.0085-5.1477 1.9805-8.5877 2.5705-2.5787 0.44233-7.7723 0.72285-9.6573 0.52162zm84.921-0.16578c-0.0695-0.1819-0.0956-8.1293-0.0578-17.661l0.0685-17.33 7.2099-0.0704 7.2099-0.0704v35.463h-7.152c-5.4778 0-7.1816-0.0774-7.2784-0.33073zm-174.33-0.66146c0.2607-0.40018 6.4807-9.7398 13.822-20.755l13.348-20.027-2.2693-2.727c-1.2481-1.4998-2.1736-2.8227-2.0567-2.9396s3.9624-0.17645 8.5456-0.1323c6.8836 0.0663 8.415 0.14839 8.8044 0.47191 0.57217 0.47533 31.094 46.185 31.094 46.567 0 0.42301-15.654 0.36378-16.194-0.0613-0.23113-0.1819-1.2189-1.6404-2.1951-3.2411s-2.0212-3.1783-2.3223-3.5057l-0.54744-0.59531h-14.617c-8.0391 0-14.804 0.0717-15.032 0.15941-0.22848 0.0877-1.3222 1.6374-2.4305 3.4439s-2.2672 3.4611-2.5755 3.677c-0.46406 0.32504-1.8754 0.39256-8.2049 0.39256h-7.6445zm44.19-16.933c-1.0743-2.0083-8.8184-14.464-9.0383-14.537-0.13981-0.0466-1.082 1.3151-2.0938 3.0259-1.0118 1.7109-3.0632 5.11-4.5586 7.5536s-2.719 4.4974-2.719 4.5641c0 0.0666 4.2298 0.12114 9.3995 0.12114h9.3995zm94.832 17.477c-5.8618-0.62704-11.976-2.9034-15.376-5.7243-5.5895-4.6384-7.3154-12.914-4.0188-19.27 1.7064-3.2899 5.6237-6.3716 10.567-8.3134 5.3079-2.0848 10.076-2.5393 16.235-1.5474 1.1496 0.18515 1.176 0.17447 0.76657-0.31041-0.23322-0.27619-2.6466-2.9803-5.363-6.0092s-4.87-5.6185-4.7859-5.7547c0.20139-0.32586 14.433-0.32603 15.29-1.9e-4 0.63416 0.24111 6.0523 6.9216 12.333 15.206 4.3759 5.7722 5.8362 9.158 5.8362 13.532 0 10.098-7.6534 16.624-21.222 18.096-2.4132 0.26187-8.2023 0.31549-10.263 0.0951zm10.009-9.2371c3.4143-0.87609 6.1849-2.9033 7.3983-5.4132 0.82346-1.7033 0.80561-4.3935-0.0411-6.2003-1.1464-2.4463-4.1304-4.6632-7.5064-5.5766-2.0284-0.54883-7.0866-0.54698-9.137 3e-3 -3.3331 0.89458-6.2483 3.0463-7.5436 5.5681-1.4699 2.8617-0.60364 6.6215 2.0497 8.8959 3.4645 2.9698 9.4909 4.08 14.78 2.7229z" stroke-width=".26458"/>
</g>
</svg>
