<?xml version="1.0" encoding="UTF-8"?>
<svg viewBox="0 0 237.44209 83.226509" xmlns="http://www.w3.org/2000/svg">
<g transform="translate(-222.59 -69.399)">
<path d="m260.52 152.47c-9.9122-0.84933-19.355-5.4032-26.311-12.688-14.108-14.777-15.521-37.277-3.3724-53.705 0.74117-1.0022 2.6034-3.0772 4.1383-4.6112 5.5998-5.5962 12.734-9.4179 20.806-11.145 2.5052-0.53612 3.6218-0.61783 8.4432-0.61783s5.9381 0.08171 8.4432 0.61783c5.2442 1.1223 10.189 3.2211 14.695 6.237 1.2157 0.81374 2.3076 1.4795 2.4263 1.4795s1.0232-0.51763 2.01-1.1503c5.4537-3.4964 11.111-5.7688 17.152-6.8897 9.6777-1.7957 19.812 0.42698 29.959 6.571l2.4543 1.486 2.588-1.5904c15.406-9.4672 31.118-9.3741 46.679 0.27669 1.1499 0.71319 2.1821 1.2967 2.2938 1.2967s1.1978-0.66578 2.4136-1.4795c4.4187-2.9576 9.3576-5.0726 14.571-6.2399 2.3982-0.53695 3.4512-0.61488 8.3028-0.61443 4.7264 4.32e-4 5.9986 0.09012 8.5182 0.6005 16.757 3.3945 29.262 16.101 32.673 33.198 0.89655 4.4944 0.83695 10.971-0.14398 15.646-1.7357 8.2722-5.5689 15.354-11.546 21.331-4.6638 4.6638-10.104 8.0042-16.351 10.039-4.881 1.5902-7.3666 1.9634-13.018 1.9542-3.9897-6e-3 -5.3962-0.11405-7.6065-0.58173-5.6183-1.1888-10.853-3.3636-15.372-6.3865l-2.4179-1.6173-2.449 1.4914c-5.1821 3.1559-10.626 5.3905-15.904 6.5284-3.8664 0.83359-11.293 0.83359-15.159 0-5.3354-1.1503-10.997-3.4839-15.804-6.5143l-2.3493-1.481-2.0365 1.3064c-4.7132 3.0234-10.805 5.5755-15.948 6.6811-3.6465 0.78393-11.28 0.8513-14.87 0.13122-5.0744-1.0177-12.084-3.9144-16.746-6.92l-1.9126-1.233-2.4369 1.63c-7.9515 5.3186-17.391 7.7701-26.811 6.9629zm9.3086-10.025c4.5034-0.80875 9.43-2.9128 12.996-5.5504 0.044-0.0325-0.7032-1.2545-1.6604-2.7154-3.0789-4.6992-5.0712-9.4528-6.2863-14.999-0.49408-2.2552-0.57965-3.4661-0.57965-8.2021 0-5.9914 0.32417-8.2835 1.836-12.982 0.92467-2.8735 3.4826-8.0091 5.2629-10.566l1.4736-2.1167-0.58135-0.48404c-1.1942-0.99435-4.1265-2.5671-6.6885-3.5875-4.1439-1.6504-6.3434-2.018-11.906-1.9898-4.2458 0.02148-5.0423 0.09875-7.342 0.71233-11.948 3.1879-21.038 12.649-23.551 24.513-0.64902 3.064-0.76026 9.1692-0.22211 12.189 1.0383 5.8258 3.9605 11.666 8.0041 15.995 7.6261 8.166 18.323 11.744 29.245 9.783zm51.38-0.0137c2.8035-0.4987 6.0595-1.5214 8.1031-2.5451 1.8785-0.941 4.8948-2.8798 4.8948-3.1464 0-0.10306-0.64082-1.1196-1.424-2.259-3.0766-4.4756-5.569-10.479-6.6819-16.095-0.66327-3.3467-0.66276-11.474 1e-3 -14.817 1.1052-5.5655 3.4568-11.248 6.5405-15.806 0.86049-1.2718 1.5643-2.4029 1.564-2.5135-8.4e-4 -0.28219-3.5674-2.5166-5.159-3.2319-4.0775-1.8327-7.5323-2.6496-12.039-2.8467-5.1166-0.2238-9.5198 0.51988-13.759 2.3239-2.0936 0.89091-4.7031 2.3749-5.7313 3.2593l-0.70509 0.60649 1.2002 1.696c3.6512 5.1593 6.1218 11.257 7.119 17.571 0.43424 2.7494 0.43981 9.9973 0.01 12.7-1.0163 6.3868-4.0689 13.791-7.4877 18.162-0.41477 0.53026-0.75412 1.0897-0.75412 1.2432 0 0.15348 0.97331 0.87805 2.1629 1.6101 6.4975 3.9986 14.423 5.4616 22.145 4.088zm52.222-0.1214c1.4188-0.28489 3.5942-0.88509 4.8342-1.3338 2.2912-0.82904 6.6441-3.2675 7.0874-3.9702 0.17417-0.27612-0.0916-0.90949-0.93436-2.2267-7.4442-11.635-9.3622-24.324-5.4706-36.193 0.91265-2.7834 3.914-9.0499 5.5059-11.496 0.59518-0.91442 1.0822-1.7719 1.0822-1.9055 0-0.64676-4.9006-3.3304-8.0698-4.4192-5.897-2.0259-13.337-2.2042-19.344-0.46346-2.8916 0.83794-6.2046 2.3685-8.284 3.8272l-1.5686 1.1003 1.6888 2.5083c3.241 4.8137 5.6688 10.808 6.5876 16.266 0.57281 3.4022 0.57552 10.519 5e-3 13.949-0.9154 5.5052-3.6171 12.072-6.8982 16.768l-1.43 2.0466 1.071 0.77583c3.0863 2.2357 8.8267 4.4865 12.826 5.0291 4.3653 0.59223 7.4079 0.52177 11.311-0.26195zm50.914 0.1526c6.6492-1.2722 12.02-4.1088 16.761-8.8529 6.8253-6.8287 10.074-15.821 9.2295-25.542-1.0981-12.633-9.7191-23.427-21.96-27.495-8.6646-2.8792-19.609-1.4457-26.932 3.5275-0.89146 0.60538-1.6208 1.1358-1.6208 1.1788 0 0.04296 0.77566 1.2382 1.7237 2.6561 3.0746 4.5984 5.024 9.2688 6.2499 14.973 0.50716 2.3599 0.59704 3.5748 0.59704 8.0698 0 4.4741-0.0908 5.7116-0.58744 8.0098-1.2568 5.8153-3.2602 10.625-6.3975 15.359-1.8745 2.8284-1.9748 2.4463 1.127 4.2969 3.5134 2.0962 8.4112 3.7386 12.553 4.2095 2.4908 0.28316 6.6529 0.10758 9.2559-0.39047zm-133.32-14.305c3.0582-4.5527 5.0734-11.377 5.0734-17.18 0-5.7962-1.8353-12.104-4.9-16.842l-1.2498-1.932-0.78048 0.92034c-1.1664 1.3754-3.8379 6.9881-4.4232 9.293-1.895 7.4618-1.2889 15.251 1.6965 21.802 1.0947 2.402 3.0584 5.4502 3.4342 5.3305 0.15004-0.0478 0.66726-0.67408 1.1494-1.3918zm51.451 0.0556c3.3006-4.971 4.9545-10.725 4.9545-17.236 0-6.795-1.9677-13.219-5.4455-17.779l-0.70098-0.91903-0.92812 1.2791c-1.4791 2.0385-3.4706 6.4349-4.1945 9.2597-1.056 4.121-1.3293 8.0438-0.82628 11.863 0.48739 3.7008 1.4136 7.0565 2.6874 9.7365 1.0488 2.2066 2.9399 5.2124 3.2793 5.2124 0.12809 0 0.65645-0.63793 1.1741-1.4176zm51.28 0.29314c1.2226-1.6748 2.9988-5.3392 3.7645-7.7661 0.80248-2.5435 1.5034-6.9908 1.5034-9.5388 0-6.1608-1.9745-12.907-5.0687-17.318l-1.1353-1.6185-0.74502 0.88976c-1.1258 1.3446-3.5365 6.4194-4.2679 8.9846-1.7539 6.1514-1.6114 12.778 0.40919 19.025 0.90669 2.8032 3.9275 8.4574 4.5222 8.4644 0.10823 1e-3 0.56615-0.5037 1.0176-1.1222z" stroke-width=".26458"/>
</g>
</svg>
