<?xml version="1.0" encoding="UTF-8"?>
<svg viewBox="0 0 634.91315 634.96307" xmlns="http://www.w3.org/2000/svg">
  <g transform="translate(210.86 164.87)">
  <g transform="translate(-109.61 -95.25)">
    <path d="m206.48 565.18c0.25297-0.0662 0.72922-0.0686 1.0583-5e-3 0.32914 0.0633 0.12216 0.11748-0.45992 0.12041-0.58209 3e-3 -0.85135-0.0488-0.59841-0.11506zm18.256 0c0.25297-0.0662 0.72922-0.0686 1.0583-5e-3 0.32914 0.0633 0.12216 0.11748-0.45992 0.12041-0.58209 3e-3 -0.85135-0.0488-0.59841-0.11506zm-24.735-0.25802c0.1819-0.0734 0.47956-0.0734 0.66146 0s0.0331 0.13346-0.33073 0.13346c-0.3638 0-0.51263-0.0601-0.33073-0.13346zm31.75 0c0.1819-0.0734 0.47956-0.0734 0.66146 0s0.0331 0.13346-0.33073 0.13346c-0.3638 0-0.51263-0.0601-0.33073-0.13346zm-36.375-0.24921c0.0879-0.0879 0.31612-0.0973 0.50712-0.0209 0.21106 0.0844 0.14838 0.14716-0.15986 0.15986-0.2789 0.0114-0.43519-0.0511-0.34726-0.13899zm41.01 0c0.0879-0.0879 0.31613-0.0973 0.50713-0.0209 0.21106 0.0844 0.14838 0.14716-0.15986 0.15986-0.2789 0.0114-0.43519-0.0511-0.34727-0.13899zm-44.715-0.26458c0.0879-0.0879 0.31612-0.0973 0.50713-0.0209 0.21105 0.0845 0.14837 0.14717-0.15987 0.15987-0.27889 0.0114-0.43518-0.0511-0.34726-0.13899zm48.419 0c0.0879-0.0879 0.31612-0.0973 0.50713-0.0209 0.21105 0.0845 0.14837 0.14717-0.15987 0.15987-0.27889 0.0114-0.43518-0.0511-0.34726-0.13899zm-241.93-86.028c-0.32911-0.41966-0.31975-0.429 0.099896-0.0999 0.25466 0.19973 0.46302 0.40809 0.46302 0.46302 0 0.21778-0.21727 0.0776-0.56292-0.36311zm435.8 0.0661c0.18116-0.21828 0.38891-0.39687 0.46167-0.39687 0.0728 0-0.0159 0.17859-0.19708 0.39687-0.18116 0.21828-0.38891 0.39688-0.46167 0.39688-0.0728 0 0.0159-0.1786 0.19708-0.39688zm-448.5-12.766c-0.32911-0.41966-0.31975-0.429 0.0999-0.0999 0.44073 0.34565 0.58089 0.56293 0.36312 0.56293-0.05494 0-0.2633-0.20836-0.46302-0.46302zm461.2 0.0661c0.18116-0.21828 0.38891-0.39687 0.46167-0.39687 0.0728 0-0.0159 0.17859-0.19708 0.39687-0.18116 0.21828-0.38891 0.39688-0.46167 0.39688-0.0728 0 0.0159-0.1786 0.19708-0.39688zm-239.52-30.468c0.17913-0.0725 0.53631-0.0769 0.79375-0.01 0.25742 0.0671 0.11086 0.12639-0.3257 0.13179-0.43656 5e-3 -0.6472-0.0495-0.46805-0.12197zm12.242-92.034v-92.207h184.41l-3e-3 1.7859c-3e-3 3.0333-0.51877 11.896-0.9433 16.206-3.3052 33.556-15.706 65.386-35.974 92.34-31.336 41.673-78.188 68.136-129.5 73.147-4.2922 0.41916-13.149 0.92946-16.206 0.93377l-1.7859 3e-3v-92.208zm-17.92 91.783c0.0879-0.0879 0.31613-0.0973 0.50713-0.0209 0.21106 0.0845 0.14838 0.14717-0.15986 0.15987-0.2789 0.0114-0.43519-0.0511-0.34727-0.13899zm-114.41-49.516c-0.32911-0.41966-0.31975-0.429 0.0999-0.0999 0.44073 0.34565 0.58089 0.56293 0.36312 0.56293-0.05494 0-0.2633-0.20836-0.46302-0.46302zm-8.7312-8.7312c-0.32911-0.41966-0.31975-0.429 0.0999-0.0999 0.44073 0.34565 0.58089 0.56293 0.36312 0.56293-0.05494 0-0.2633-0.20836-0.46302-0.46302zm454.34-104.69c-0.0114-0.27889 0.0511-0.43518 0.13899-0.34726 0.0879 0.0879 0.0973 0.31612 0.0209 0.50712-0.0844 0.21106-0.14716 0.14838-0.15986-0.15986zm-633.41-3.7042c-0.0115-0.2789 0.051-0.43519 0.13897-0.34727 0.0879 0.0879 0.0973 0.31612 0.0209 0.50713-0.0845 0.21106-0.14716 0.14838-0.15986-0.15986zm633.68 0c-0.0114-0.2789 0.0511-0.43519 0.13898-0.34727 0.0879 0.0879 0.0973 0.31612 0.0209 0.50713-0.0844 0.21106-0.14716 0.14838-0.15986-0.15986zm-633.92-4.6522c0-0.3638 0.0601-0.51263 0.13345-0.33073 0.0734 0.1819 0.0734 0.47956 0 0.66146s-0.13345 0.0331-0.13345-0.33073zm634.21 0c0-0.3638 0.0601-0.51263 0.13346-0.33073 0.0734 0.1819 0.0734 0.47956 0 0.66146s-0.13346 0.0331-0.13346-0.33073zm-504.32-1.4332c-0.01148-0.2789 0.05105-0.43519 0.13896-0.34727 0.08792 0.0879 0.09732 0.31613 0.02088 0.50713-0.08446 0.21106-0.14716 0.14838-0.15985-0.15986zm-130.13-5.3137c-3e-3 -0.58208 0.0489-0.85135 0.11507-0.59841 0.0662 0.25297 0.0686 0.72922 5e-3 1.0583-0.0633 0.32914-0.11747 0.12216-0.12041-0.45993zm634.73-0.13229c0-0.50932 0.0544-0.71768 0.12099-0.46302 0.0666 0.25466 0.0666 0.67138 0 0.92604-0.0665 0.25466-0.12099 0.0463-0.12099-0.46302zm-504.82-0.26458c0-0.50932 0.05445-0.71768 0.121-0.46302s0.06655 0.67138 0 0.92604-0.121 0.0463-0.121-0.46302zm-0.05885-13.692c0.0044-3.128 0.51594-11.963 0.93822-16.206 3.5271-35.436 17.043-68.733 39.165-96.484 28.087-35.235 67.494-58.901 111.37-66.884 9.9514-1.8107 22.498-3.0398 31.155-3.0521l1.7859-0.0026v184.41h-184.41l0.0026-1.7859zm374.96-3.638c-5e-3 -0.43656 0.0495-0.6472 0.12197-0.46805 0.0725 0.17912 0.0769 0.53631 0.01 0.79375-0.0671 0.25741-0.12639 0.11086-0.13179-0.3257zm-504.81-0.52917c-3e-3 -0.58208 0.0489-0.85135 0.11507-0.59841 0.0662 0.25297 0.0686 0.72922 5e-3 1.0583-0.0633 0.32914-0.11747 0.12216-0.12041-0.45993zm634.73 0.13229c0-0.50932 0.0544-0.71768 0.12099-0.46302 0.0666 0.25467 0.0666 0.67138 0 0.92605-0.0665 0.25466-0.12099 0.0463-0.12099-0.46303zm-130.22-5.4019c-0.0114-0.2789 0.0511-0.43519 0.13899-0.34727 0.0879 0.0879 0.0973 0.31612 0.0209 0.50713-0.0845 0.21106-0.14716 0.14838-0.15986-0.15986zm-504.27-1.4772c0-0.3638 0.0601-0.51263 0.13345-0.33073 0.0734 0.1819 0.0734 0.47956 0 0.66146s-0.13345 0.0331-0.13345-0.33073zm634.21 0c0-0.3638 0.0601-0.51263 0.13346-0.33073 0.0734 0.1819 0.0734 0.47956 0 0.66146s-0.13346 0.0331-0.13346-0.33073zm-633.96-4.6082c-0.0115-0.2789 0.051-0.43519 0.13897-0.34727 0.0879 0.0879 0.0973 0.31613 0.0209 0.50713-0.0845 0.21106-0.14716 0.14838-0.15986-0.15986zm633.68 0c-0.0114-0.2789 0.0511-0.43519 0.13898-0.34727 0.0879 0.0879 0.0973 0.31613 0.0209 0.50713-0.0844 0.21106-0.14716 0.14838-0.15986-0.15986zm-188.17-117.56c-0.32909-0.41964-0.31975-0.429 0.0999-0.0999 0.25466 0.19972 0.46302 0.40808 0.46302 0.46302 0 0.21776-0.21728 0.0776-0.56293-0.36313zm-318.52-20.836c0.18116-0.21828 0.38891-0.39688 0.46167-0.39688s-0.01593 0.17859-0.19708 0.39688c-0.18116 0.21828-0.38891 0.39688-0.46167 0.39688s0.01593-0.17859 0.19709-0.39688zm30.129-8.5328c-0.32911-0.41964-0.31975-0.429 0.0999-0.0999 0.44073 0.34564 0.58089 0.56292 0.36312 0.56292-0.05494 0-0.2633-0.20836-0.46302-0.46302zm11.543-10.649c-0.41825-0.43656-0.70093-0.79375-0.62817-0.79375s0.4745 0.35719 0.89275 0.79375 0.70093 0.79375 0.62817 0.79375-0.4745-0.35719-0.89275-0.79375zm-72.628-8.3344c0.18116-0.21828 0.38891-0.39688 0.46167-0.39688s-0.015928 0.17859-0.19709 0.39688c-0.18116 0.21828-0.38891 0.39688-0.46167 0.39688s0.015928-0.17859 0.19709-0.39688zm235.02-0.82131c0.0879-0.08792 0.31612-0.09732 0.50712-0.02088 0.21106 0.08446 0.14838 0.14716-0.15986 0.15985-0.2789 0.01148-0.43519-0.05105-0.34726-0.13896zm-5.9637-0.27828c0.17912-0.07247 0.53631-0.07689 0.79375-0.0098 0.25741 0.06708 0.11086 0.12638-0.3257 0.13177-0.43656 0.0054-0.6472-0.04949-0.46805-0.12197zm-188.56-0.99503c-0.01148-0.27891 0.05105-0.43518 0.13896-0.34727 0.08792 0.08792 0.09732 0.31612 0.02088 0.50712-0.08446 0.21107-0.14716 0.14837-0.15985-0.15985zm-36.798-1.6095c0.18116-0.21828 0.38891-0.39688 0.46167-0.39688s-0.015928 0.17859-0.19709 0.39688c-0.18116 0.21828-0.38891 0.39688-0.46167 0.39688-0.072761 0 0.015928-0.17859 0.19709-0.39688zm447.78-27.715l-0.50403-0.59531 0.59531 0.50403c0.55944 0.47366 0.71575 0.6866 0.50403 0.6866-0.0502 0-0.31811-0.26789-0.59531-0.59531zm-461.28-0.06615c0.18116-0.21828 0.38891-0.39688 0.46167-0.39688s-0.01593 0.17859-0.19708 0.39688c-0.18116 0.21828-0.38891 0.39688-0.46167 0.39688s0.01593-0.17859 0.19708-0.39688zm12.832-12.832c0.26339-0.29104 0.53842-0.52917 0.61118-0.52917s-0.083209 0.23812-0.3466 0.52917c-0.26339 0.29104-0.53842 0.52917-0.61118 0.52917s0.083209-0.23812 0.3466-0.52917zm435.6 0.06615c-0.32909-0.41964-0.31975-0.429 0.0999-0.0999 0.25466 0.19972 0.46302 0.40808 0.46302 0.46302 0 0.21776-0.21728 0.07761-0.56293-0.36312zm-266.4-59.862-11.245-0.14093 11.163-0.06183c7.224-0.04001 11.221 0.03153 11.327 0.20276 0.0899 0.14552 0.12673 0.23676 0.0817 0.20276-0.045-0.03401-5.1419-0.12524-11.327-0.20276zm80.914-0.19815c2.8108-0.04289 7.3352-0.04283 10.054 1.43e-4 2.7189 0.04297 0.41915 0.07806-5.1106 0.07798s-7.7544-0.03524-4.9435-0.07812zm-1.9963-25.362c0.0879-0.08792 0.31612-0.09732 0.50713-0.02089 0.21105 0.08446 0.14837 0.14716-0.15987 0.15985-0.27889 0.01149-0.43518-0.05105-0.34726-0.13896zm-51.065-0.79375c0.0879-0.08792 0.31612-0.09732 0.50712-0.02089 0.21106 0.08446 0.14838 0.14716-0.15986 0.15985-0.2789 0.01149-0.43519-0.05105-0.34726-0.13896zm41.01 0c0.0879-0.08792 0.31613-0.09732 0.50713-0.02089 0.21106 0.08446 0.14838 0.14716-0.15986 0.15985-0.2789 0.01149-0.43519-0.05105-0.34727-0.13896zm-36.386-0.27996c0.1819-0.0734 0.47956-0.0734 0.66146 0s0.0331 0.13345-0.33073 0.13345c-0.3638 0-0.51263-0.06005-0.33073-0.13345zm31.75 0c0.1819-0.0734 0.47956-0.0734 0.66146 0s0.0331 0.13345-0.33073 0.13345c-0.3638 0-0.51263-0.06005-0.33073-0.13345zm-25.268-0.27174c0.25466-0.06655 0.67138-0.06655 0.92604 0 0.25467 0.06655 0.0463 0.121-0.46302 0.121s-0.71768-0.05445-0.46302-0.121zm18.521 0c0.25466-0.06655 0.67138-0.06655 0.92604 0s0.0463 0.121-0.46302 0.121c-0.50933 0-0.71769-0.05445-0.46302-0.121z" fill="#00aaea"/>
    <path d="m203.11 565.07c-63.44-2.647-124.17-24.117-175.29-61.971-19.374-14.347-37.328-31.104-53.206-49.657-24.966-29.173-44.753-63.414-57.719-99.88-16.234-45.659-21.656-94.452-15.919-143.27 7.3329-62.406 33.644-121.86 75.117-169.73 70.502-81.38 175.97-121.54 282.05-107.39 42.67 5.6914 83.366 19.904 120.39 42.044 18.385 10.995 35.865 24.013 51.858 38.619 4.4299 4.0458 15.802 15.418 19.848 19.848 59.466 65.112 89.099 150.56 82.536 237.99-5.6149 74.799-37.444 144.69-90.477 198.66-33.808 34.409-74.856 60.609-120.39 76.836-37.566 13.389-78.612 19.572-118.8 17.896zm9.9219-221.83v-92.207h-184.41l1.53e-4 2.1828c2.28e-4 3.2335 0.48104 11.401 0.94624 16.073 5.2589 52.821 33.16 100.76 76.783 131.94 30.168 21.557 67.007 33.7 103.71 34.183l2.9766 0.0392zm15.081 91.937c31.096-1.5995 59.37-10.19 85.99-26.126 47.226-28.272 79.987-77.359 87.7-131.41 1.0971-7.6876 1.9862-18.768 1.992-24.825l3e-3 -1.7859h-184.41v184.41l1.7859-3e-3c0.98227-3e-3 4.1077-0.12195 6.9453-0.2679zm-15.081-282.7v-92.207l-1.7859 0.0026c-3.1193 0.0044-11.962 0.51473-16.073 0.92764-34.21 3.4354-65.463 15.668-93.001 36.401-38.741 29.168-64.771 72.996-71.562 120.49-1.1105 7.767-1.9807 18.617-1.9895 24.805l-0.0026 1.7859h184.41v-92.207zm190.76 90.157c-3e-3 -3.2444-0.49593-11.724-0.94363-16.206-3.6663-36.698-18.215-71.261-41.96-99.683-31.142-37.277-75.336-60.774-123.25-65.532-4.4952-0.44638-12.978-0.93901-16.206-0.94115l-2.0505-0.0014v184.41h184.41l-3e-3 -2.0505zm-357.39-107c7.8984-9.1805 15.473-18.075 16.832-19.766 5.2635-6.5469 9.2489-13.354 10.99-18.769 1.2507-3.8911 1.5979-6.3398 1.4062-9.9182-0.60997-11.389-8.3488-21.285-18.572-23.748-2.603-0.62707-7.4715-0.68785-10.14-0.12658-3.5154 0.73948-7.4968 2.411-10.857 4.5582-0.77988 0.49829-1.4551 0.86886-1.5005 0.82349-0.04537-0.04537 0.14698-1.0345 0.42744-2.198 1.6178-6.7118 0.82879-13.369-2.1952-18.52-1.3679-2.33-4.3326-5.2869-6.7134-6.6956-2.236-1.323-5.8882-2.5641-8.6618-2.9433-9.743-1.3321-18.749 2.7525-28.624 12.982-2.2717 2.3533-31.603 36.239-31.829 36.771-0.04441 0.10464 8.29 7.3902 18.521 16.19 10.231 8.8 27.052 23.267 37.38 32.148 10.328 8.8816 18.868 16.093 18.977 16.026 0.10922-0.0675 6.6609-7.6341 14.559-16.815zm-26.517-13.214c-6.9122-5.968-12.568-10.953-12.568-11.078 0-0.38067 18.59-21.892 21.696-25.106 6.7678-7.0019 11.43-9.6163 17.198-9.644 2.9172-0.014 4.1984 0.26868 6.6621 1.4699 4.1506 2.0238 7.595 6.3628 8.5194 10.732 1.2426 5.8733-0.95772 11.971-7.0369 19.5-3.8993 4.8296-21.251 24.87-21.58 24.923-0.17775 0.0289-5.9787-4.8303-12.891-10.798zm-32.989-28.358c-6.1387-5.2686-11.169-9.6498-11.179-9.7361-0.02424-0.21873 14.696-17.325 18.648-21.671 4.9988-5.4968 8.7094-8.5363 12.018-9.8445 2.1414-0.84666 6.8817-0.85124 9.1255-0.0088 3.4923 1.3111 6.6442 4.1145 8.2273 7.3177 0.84458 1.7089 0.99413 2.2962 1.1123 4.3686 0.29276 5.1345-1.672 9.6125-7.2637 16.556-2.7093 3.364-19.108 22.471-19.348 22.544-0.098952 0.0298-5.2025-4.2564-11.341-9.525zm450.21 27.956c21.477-9.5514 39.428-17.558 39.891-17.793l0.84244-0.42703-3.4359-4.2333c-1.8898-2.3283-3.519-4.2134-3.6206-4.189-0.10155 0.02437-7.4475 3.5212-16.324 7.7707-8.8768 4.2495-21.795 10.432-28.707 13.738-6.9122 3.3063-14.59 7.0342-17.062 8.2842-2.4719 1.25-4.5117 2.2513-4.5328 2.2251-0.0212-0.0262 1.2544-1.515 2.8346-3.3084 3.3931-3.8511 8.1933-9.7693 11.519-14.202 2.2824-3.0419 29-40.402 29.736-41.581 0.33269-0.53282 0.0868-0.90476-3.7166-5.6224-2.2401-2.7785-4.178-5.0518-4.3064-5.0518-0.22513 0-48.623 21.083-54.556 23.765-1.6007 0.72376-5.384 2.5118-8.4074 3.9733-4.6888 2.2667-5.4085 2.5478-4.8948 1.9116 0.33123-0.41019 2.031-2.4458 3.7772-4.5236 4.5927-5.4646 41.689-52.722 41.599-52.993-0.20122-0.60367-6.9266-8.6281-7.0832-8.4513-0.56004 0.63192-51.582 69.974-51.582 70.103 0 0.0858 1.567 2.0978 3.4823 4.4712 2.7469 3.4039 3.5711 4.2681 3.9026 4.0923 0.23116-0.12259 14.41-6.3814 31.509-13.908s32.679-14.443 34.623-15.369c2.47-1.1762 3.4262-1.5286 3.175-1.1701-0.19767 0.2821-10.216 14.152-22.263 30.822s-21.967 30.474-22.045 30.676c-0.11962 0.31171 6.1172 8.358 6.4784 8.358 0.0653 0 17.691-7.8148 39.167-17.366zm-266.35-115.84l0.0671-35.836 6.3234 14.074c3.4778 7.7407 10.726 23.867 16.106 35.836l9.7827 21.762h13.318l0.67156-1.3891c0.36936-0.76398 7.6867-16.675 16.261-35.357l15.589-33.968 0.0671 35.357 0.0671 35.357h14.286v-84.931h-9.8895c-7.6013 0-9.9475 0.07652-10.14 0.33073-0.44644 0.58824-30.906 67.751-32.357 71.347l-0.36378 0.90142-0.34425-0.76913c-0.18936-0.42302-1.4104-3.2694-2.7134-6.3254-1.303-3.0559-8.3185-19.01-15.59-35.454l-13.221-29.898-11.136-0.06902-11.136-0.06902v84.937h14.286z"/>
  </g>
  </g>
</svg>
