<?xml version="1.0" encoding="UTF-8"?>
<svg viewBox="0 0 721.487 597.27191" xmlns="http://www.w3.org/2000/svg">
<g transform="translate(-463.22 166.4)">
<path d="m950.15 430.6c-20.511-1.7407-32.823-9.5455-36.755-23.301-1.4327-5.0116-1.4775-5.9347-1.4775-30.444 0-25.461 0.17835-23.217-2.1695-27.296l-1.3583-2.3595 0.32882-2.0061c0.18085-1.1033 0.39167-2.2718 0.46845-2.5965l0.13964-0.59037 12.795-0.0711 12.795-0.0711 0.0886 28.84c0.0802 26.091 0.13131 28.997 0.53652 30.496 1.5788 5.8387 5.3021 8.9465 12.774 10.662 3.0734 0.70575 12.156 1.0029 16.218 0.53057 7.5176-0.87397 12.805-3.654 14.932-7.8508 1.7006-3.3559 1.6094-1.5632 1.704-33.507l0.086-29.038h22.472v29.303c0 31.406 0 31.434-1.354 36.283-3.3006 11.841-12.731 19.222-28.106 21.998-6.5531 1.183-16.989 1.624-24.117 1.0192zm-483.13-1.2281c-0.17425-0.12803-0.26458-13.112-0.26458-38.03v-37.835l-1.0804-1.9844c-0.5942-1.0914-1.3907-2.5202-1.77-3.175l-0.68965-1.1906 0.44177-2.5896 0.44178-2.5896 31.888 0.0914c35.169 0.10078 33.519 0.0268 40.477 1.8149 9.9934 2.5681 16.386 8.5589 18.648 17.476 2.2764 8.9741 0.90959 17.977-3.8505 25.361-1.9895 3.0863-5.9144 7.0453-8.7686 8.8447-1.1278 0.71101-2.0505 1.3993-2.0505 1.5296 0 0.2087 2.0519 3.744 7.7944 13.429 5.4301 9.1582 10.732 18.228 10.878 18.609 0.15668 0.40833-0.77367 0.44141-12.421 0.44141h-12.59l-0.42357-0.64646c-0.43152-0.65857-0.87265-1.4583-9.9074-17.962l-5.1594-9.4246-14.354-6e-3 -14.354-6e-3v28.046l-11.311-4e-3c-6.221-3e-3 -11.43-0.0915-11.576-0.19844zm58.406-44.735c3.1561-1.2629 5.6972-4.5697 6.6892-8.7047 0.64803-2.7011 0.44353-8.0125-0.3926-10.197-1.5583-4.0718-4.7669-6.1392-10.559-6.8028-1.2571-0.14403-8.8043-0.26289-16.772-0.26408l-14.486-2e-3v26.758l16.999-0.0891 16.999-0.0891zm56.149 44.607c-0.0694-0.18241-0.0956-19.888-0.0582-43.791l0.0679-43.46 37.769-0.0643 37.769-0.0643v16.269l-26.26 0.0674-26.26 0.0674-0.0696 9.375c-0.0544 7.3242 3e-3 9.4214 0.26458 9.5871 0.18381 0.11668 11.02 0.21397 24.081 0.21619l23.746 4e-3v15.608l-24.011 0.0675-24.011 0.0676-0.0693 9.988-0.0693 9.988h54.254l-0.07 8.1359-0.07 8.1359-38.439 0.067c-30.612 0.0534-38.464 0-38.565-0.26458zm101.12 0.15343c-0.097-0.097-0.1764-17.275-0.1764-38.172v-37.996l-1.7072-3.07-1.7072-3.07 0.44031-2.5462 0.44032-2.5462h22.536l6.7575 7.2099c27.129 28.945 36.853 39.607 43.487 47.681l2.3812 2.8981 0.0673-29.06 0.0673-29.06 10.251 0.17148 10.251 0.17147v87.434l-9.7411 0.0694c-5.3576 0.0382-9.8945-0.0214-10.082-0.13229-0.48302-0.2858-19.753-21.041-31.771-34.22-1.0186-1.117-3.2322-3.5045-4.9189-5.3055-3.9839-4.2538-10.358-11.549-13.205-15.112-1.2369-1.5483-2.3383-2.8223-2.4474-2.8311-0.10914-9e-3 -0.19844 12.884-0.19844 28.651v28.667l-3.2165 0.17296c-4.2059 0.22616-17.282 0.2236-17.509-3e-3zm111.07-0.15793c-0.19531-0.50893 7.8688-20.559 14.498-36.046 6.942-16.218 13.376-30.433 20.45-45.178l2.8876-6.0193 14.559 0.0161 14.559 0.0161 2.0511 4.2833c6.9454 14.504 12.614 26.973 19.569 43.045 7.4555 17.228 16.505 39.636 16.151 39.99-0.12837 0.12837-5.3004 0.20148-11.558 0.16335l-11.325-0.069-1.8189-4.7625c-3.3556-8.7859-3.7529-9.7881-4.012-10.12-0.20294-0.26017-5.2709-0.33073-23.753-0.33073h-23.495l-1.3228 3.3734c-0.72752 1.8554-1.9769 5.0998-2.7764 7.2099-0.79952 2.11-1.5361 4.0448-1.6368 4.2995-0.17041 0.43093-0.97006 0.46302-11.54 0.46302-8.9065 0-11.385-0.0721-11.485-0.33433zm69.201-31.658c0-0.57531-7.782-19.14-13.041-31.111-3.301-7.5137-3.7074-8.3612-3.9061-8.1453-0.57137 0.62061-13.861 31.623-16.676 38.903l-0.23021 0.59532h16.927c10.07 0 16.927-0.0982 16.927-0.24228zm166.86 31.817c-0.097-0.0975-0.1773-19.8-0.1773-43.784v-43.607l11.399-0.0717c6.2696-0.0394 11.449-0.022 11.509 0.0386 0.061 0.0606 0.1101 16.104 0.1101 35.653v35.542h50.278l-0.07 8.1359-0.07 8.1359-36.401 0.0671c-20.021 0.0369-36.481-0.0127-36.579-0.11023zm97.63 0c-0.097-0.097-0.1764-16.17-0.1764-35.719v-35.542h-34.131v-16.14h91.546v16.136l-17.132 0.0681-17.132 0.0681-0.067 35.653-0.067 35.653h-11.332c-6.2326 0-11.411-0.0794-11.508-0.1764zm-342.68-197.91c-6.3045-0.0933-16.963-0.60118-18.879-0.89953-3.1259-0.48681-5.7867-2.3832-8.4839-6.0467-3.1435-4.2698-24.595-39.382-38.24-62.591-1.2833-2.1828-2.8377-4.8022-3.4543-5.8208-1.0587-1.7491-2.6651-4.5022-9.5714-16.404-6.7408-11.617-13.706-24.026-20.744-36.958-1.7676-3.2477-3.8982-7.155-4.7348-8.683-1.4926-2.7261-6.3594-11.858-9.9415-18.653-8.1371-15.437-16.85-33.06-17.83-36.063-1.5069-4.6196-1.4782-8.9672 0.0902-13.654 1.1958-3.5736 13.695-28.36 23.895-47.385 1.2484-2.3283 3.2221-6.0193 4.3861-8.2021 4.9213-9.2288 11.429-21.1 15.083-27.517 3.3634-5.9052 10.195-17.798 11.551-20.108 0.68334-1.1642 2.1448-3.6645 3.2477-5.5562 1.1029-1.8918 3.4057-5.8208 5.1174-8.7312s3.6714-6.2442 4.3548-7.4083c8.1936-13.957 22.502-37.755 29.03-48.286 9.4593-15.259 11.17-17.079 16.927-18.003 3.803-0.61029 13.981-0.82221 43.2-0.8995 35.952-0.0951 47.183 0.17305 51.594 1.2318 3.6188 0.86872 5.9901 3.2528 10.865 10.923 9.0039 14.168 33.142 54.305 44.554 74.083 1.4274 2.4739 2.9231 5.0337 3.3238 5.6885 0.40071 0.65484 2.7207 4.703 5.1556 8.9958 2.4349 4.2929 4.9363 8.6982 5.5587 9.7896 1.6002 2.8059 4.9163 8.7843 6.7217 12.118 0.84325 1.5571 2.2502 4.1407 3.1266 5.7415 7.67 14.009 21.289 40.106 27.824 53.314 5.3537 10.822 5.9133 12.417 5.9411 16.933 0.0351 5.7073-0.46966 6.9252-12.61 30.427-6.9339 13.423-14.592 27.925-20.749 39.291-0.86709 1.6007-2.4455 4.5178-3.5076 6.4823-10.302 19.055-26.852 47.442-48.744 83.608-16.405 27.101-20.013 32.729-22.521 35.131-2.7856 2.6682-4.6242 3.294-10.627 3.6175-10.092 0.5438-49.151 0.81564-70.908 0.49353zm-12.327-9.8809c2.0261-1.9663 4.027-5.2739 14.64-24.202 3.4819-6.2097 5.0925-9.1059 9.9312-17.859 2.5254-4.5684 9.2604-16.837 11.039-20.108 3.6009-6.6241 10.277-18.958 11.265-20.811 0.60833-1.1413 1.374-2.5513 1.7015-3.1334 0.32753-0.58209 1.1026-2.0108 1.7225-3.175 0.61984-1.1642 1.9297-3.605 2.9107-5.424 6.5651-12.173 16.984-31.984 26.717-50.8 7.9724-15.413 18.372-36.9 19.437-40.16 1.0922-3.3427 0.61827-5.8212-2.3125-12.095-8.297-17.761-26.498-54.039-36.769-73.29-3.2791-6.1457-9.7145-18.092-13.158-24.425l-1.9153-3.523 0.46474-1.2395c1.7204-4.5887 9.8165-22.919 14.805-33.519 5.506-11.7 14.919-30.593 20.35-40.846 1.2625-2.3832 2.2318-4.3969 2.1539-4.4748-0.32885-0.32886-1.5192 0.55013-2.5865 1.91-1.2198 1.5542-6.7027 10.372-10.13 16.291-9.6948 16.744-19.361 34.135-32.94 59.267-3.0802 5.7006-8.3009 15.489-13.618 25.532-18.184 34.346-38.847 75.602-41.544 82.947-0.96931 2.6401-1.0191 5.2066-0.15143 7.8052 1.1255 3.3707 11.353 24.54 22.925 47.45 9.5898 18.986 17.333 33.734 27.539 52.455l3.5474 6.5068-2.7605 6.5901c-4.3325 10.343-7.6974 17.912-13.281 29.873-4.6806 10.026-19.202 38.7-21.506 42.466-0.31168 0.50932-0.56711 1.0042-0.56767 1.0997-3e-3 0.41971 1.1432-0.18658 2.0916-1.107z" stroke-width=".26458"/>
</g>
</svg>
