<?xml version="1.0" encoding="UTF-8"?>
<svg viewBox="0 0 322.65576 398.02548" xmlns="http://www.w3.org/2000/svg">
<g transform="translate(-651.8 166.4)">
<path d="m784.79 231.48c-6.3045-0.0933-16.963-0.60118-18.879-0.89953-3.1259-0.48681-5.7867-2.3832-8.4839-6.0467-3.1435-4.2698-24.595-39.382-38.24-62.591-1.2833-2.1828-2.8377-4.8022-3.4543-5.8208-1.0587-1.7491-2.6651-4.5022-9.5714-16.404-6.7408-11.617-13.706-24.026-20.744-36.958-1.7676-3.2477-3.8982-7.155-4.7348-8.683-1.4926-2.7261-6.3594-11.858-9.9415-18.653-8.1371-15.437-16.85-33.06-17.83-36.063-1.5069-4.6196-1.4782-8.9672 0.0902-13.654 1.1958-3.5736 13.695-28.36 23.895-47.385 1.2484-2.3283 3.2221-6.0193 4.3861-8.2021 4.9213-9.2288 11.429-21.1 15.083-27.517 3.3634-5.9052 10.195-17.798 11.551-20.108 0.68334-1.1642 2.1448-3.6645 3.2477-5.5562 1.1029-1.8918 3.4057-5.8208 5.1174-8.7312s3.6714-6.2442 4.3548-7.4083c8.1936-13.957 22.502-37.755 29.03-48.286 9.4593-15.259 11.17-17.079 16.927-18.003 3.803-0.61029 13.981-0.82221 43.2-0.8995 35.952-0.0951 47.183 0.17305 51.594 1.2318 3.6188 0.86872 5.9901 3.2528 10.865 10.923 9.0039 14.168 33.142 54.305 44.554 74.083 1.4274 2.4739 2.9231 5.0337 3.3238 5.6885 0.40071 0.65484 2.7207 4.703 5.1556 8.9958 2.4349 4.2929 4.9363 8.6982 5.5587 9.7896 1.6002 2.8059 4.9163 8.7843 6.7217 12.118 0.84325 1.5571 2.2502 4.1407 3.1266 5.7415 7.67 14.009 21.289 40.106 27.824 53.314 5.3537 10.822 5.9133 12.417 5.9411 16.933 0.0351 5.7073-0.46966 6.9252-12.61 30.427-6.9339 13.423-14.592 27.925-20.749 39.291-0.86709 1.6007-2.4455 4.5178-3.5076 6.4823-10.302 19.055-26.852 47.442-48.744 83.608-16.405 27.101-20.013 32.729-22.521 35.131-2.7856 2.6682-4.6242 3.294-10.627 3.6175-10.092 0.5438-49.151 0.81564-70.908 0.49353zm-12.327-9.8809c2.0261-1.9663 4.027-5.2739 14.64-24.202 3.4819-6.2097 5.0925-9.1059 9.9312-17.859 2.5254-4.5684 9.2604-16.837 11.039-20.108 3.6009-6.6241 10.277-18.958 11.265-20.811 0.60833-1.1413 1.374-2.5513 1.7015-3.1334 0.32753-0.58209 1.1026-2.0108 1.7225-3.175 0.61984-1.1642 1.9297-3.605 2.9107-5.424 6.5651-12.173 16.984-31.984 26.717-50.8 7.9724-15.413 18.372-36.9 19.437-40.16 1.0922-3.3427 0.61827-5.8212-2.3125-12.095-8.297-17.761-26.498-54.039-36.769-73.29-3.2791-6.1457-9.7145-18.092-13.158-24.425l-1.9153-3.523 0.46474-1.2395c1.7204-4.5887 9.8165-22.919 14.805-33.519 5.506-11.7 14.919-30.593 20.35-40.846 1.2625-2.3832 2.2318-4.3969 2.1539-4.4748-0.32885-0.32886-1.5192 0.55013-2.5865 1.91-1.2198 1.5542-6.7027 10.372-10.13 16.291-9.6948 16.744-19.361 34.135-32.94 59.267-3.0802 5.7006-8.3009 15.489-13.618 25.532-18.184 34.346-38.847 75.602-41.544 82.947-0.96931 2.6401-1.0191 5.2066-0.15143 7.8052 1.1255 3.3707 11.353 24.54 22.925 47.45 9.5898 18.986 17.333 33.734 27.539 52.455l3.5474 6.5068-2.7605 6.5901c-4.3325 10.343-7.6974 17.912-13.281 29.873-4.6806 10.026-19.202 38.7-21.506 42.466-0.31168 0.50932-0.56711 1.0042-0.56767 1.0997-3e-3 0.41971 1.1432-0.18658 2.0916-1.107z" stroke-width=".26458"/>
</g>
</svg>
